<svg xmlns="http://www.w3.org/2000/svg" width="136" height="120" viewBox="0 0 136 120" fill="none" stroke="#73779b" stroke-width="2" stroke-linecap="round" stroke-linejoin="round">
  <rect x="24" y="25" width="88" height="70" rx="12" fill="#73779b" fill-opacity=".22" stroke-opacity=".5"/>
  <rect x="15" y="16" width="88" height="70" rx="12" fill="#f8f9fb"/>
  <path d="M16 35h86M37 36v49"/>
  <circle cx="26" cy="26" r="1.5"/>
  <circle cx="33" cy="26" r="1.5"/>
  <path d="M24 47h5M24 57h5M24 67h5"/>
  <rect x="47" y="45" width="44" height="28" rx="4" fill="#73779b" fill-opacity=".16" stroke-opacity=".65"/>
  <path d="m54 65 8-8 8 3 12-9"/>
  <rect x="86" y="48" width="35" height="62" rx="8" fill="#73779b" fill-opacity=".22" stroke-opacity=".5"/>
  <rect x="80" y="42" width="35" height="62" rx="8" fill="#f8f9fb"/>
  <path d="M93 49h9"/>
  <rect x="87" y="57" width="21" height="22" rx="4" fill="#73779b" fill-opacity=".16" stroke-opacity=".65"/>
  <path d="m92 68 4 4 7-8M88 86h12M94 97h7"/>
</svg>
